<svg xmlns="http://www.w3.org/2000/svg" xmlns:xlink="http://www.w3.org/1999/xlink" xmlns:lucid="lucid" width="439" height="620"><g transform="translate(-27 -140)" lucid:page-tab-id="0_0"><path d="M0 0h1360v1760H0z" fill="#fff"/><path d="M140 180h220v60H140z" stroke="#000" stroke-width="2" fill="#fff"/><use xlink:href="#a" transform="matrix(1,0,0,1,145,185) translate(61.074999999999996 28.6)"/><path d="M140 300h220v60H140z" stroke="#000" stroke-width="2" fill="#fff"/><use xlink:href="#b" transform="matrix(1,0,0,1,145,305) translate(20.224999999999994 28.6)"/><use xlink:href="#c" transform="matrix(1,0,0,1,145,305) translate(61.224999999999994 28.6)"/><use xlink:href="#d" transform="matrix(1,0,0,1,145,305) translate(108.82499999999999 28.6)"/><path d="M318.67 298v-38.5" stroke="#000" stroke-width="2" fill="none"/><path d="M319.67 299h-2v-1.03h2z"/><path d="M318.67 244.24l4.63 14.26h-9.27z" stroke="#000" stroke-width="2"/><path d="M185.33 242v38.5" stroke="#000" stroke-width="2" fill="none"/><path d="M186.33 242.03h-2V241h2z"/><path d="M185.33 295.76l-4.63-14.26h9.27z" stroke="#000" stroke-width="2"/><path d="M320 260h140v35H320z" stroke="#000" stroke-opacity="0" stroke-width="2" fill="#fff" fill-opacity="0"/><use xlink:href="#e" transform="matrix(1,0,0,1,325,265) translate(20.599999999999994 16.1)"/><path d="M40 252.5h140v35H40z" stroke="#000" stroke-opacity="0" stroke-width="2" fill="#fff" fill-opacity="0"/><use xlink:href="#f" transform="matrix(1,0,0,1,45,257.5) translate(7.549999999999997 16.1)"/><path d="M140 420h220v60H140z" stroke="#000" stroke-width="2" fill="#fff"/><use xlink:href="#g" transform="matrix(1,0,0,1,145,425) translate(57.55 28.6)"/><use xlink:href="#h" transform="matrix(1,0,0,1,145,425) translate(119.5 28.6)"/><path d="M180 362v38.5" stroke="#000" stroke-width="2" fill="none"/><path d="M181 362.03h-2V361h2z"/><path d="M180 415.76l-4.64-14.26h9.28z" stroke="#000" stroke-width="2"/><path d="M321.33 418v-38.5" stroke="#000" stroke-width="2" fill="none"/><path d="M322.33 419h-2v-1.03h2z"/><path d="M321.33 364.24l4.64 14.26h-9.27z" stroke="#000" stroke-width="2"/><path d="M32 372.5h140v35H32z" stroke="#000" stroke-opacity="0" stroke-width="2" fill="#fff" fill-opacity="0"/><use xlink:href="#i" transform="matrix(1,0,0,1,37,377.5) translate(35.55 16.1)"/><path d="M320 380h140v35H320z" stroke="#000" stroke-opacity="0" stroke-width="2" fill="#fff" fill-opacity="0"/><use xlink:href="#j" transform="matrix(1,0,0,1,325,385) translate(28.624999999999993 16.1)"/><path d="M140 540h220v60H140z" stroke="#000" stroke-width="2" fill="#fff"/><use xlink:href="#k" transform="matrix(1,0,0,1,145,545) translate(49.55 28.6)"/><use xlink:href="#h" transform="matrix(1,0,0,1,145,545) translate(127.5 28.6)"/><path d="M180 482v38.5" stroke="#000" stroke-width="2" fill="none"/><path d="M181 482.03h-2V481h2z"/><path d="M180 535.76l-4.64-14.26h9.28z" stroke="#000" stroke-width="2"/><path d="M320 538v-38.5" stroke="#000" stroke-width="2" fill="none"/><path d="M321 539h-2v-1.03h2z"/><path d="M320 484.24l4.64 14.26h-9.28z" stroke="#000" stroke-width="2"/><path d="M32 492.5h140v35H32z" stroke="#000" stroke-opacity="0" stroke-width="2" fill="#fff" fill-opacity="0"/><use xlink:href="#l" transform="matrix(1,0,0,1,37,497.5) translate(36.05 16.1)"/><path d="M320 492.5h140v35H320z" stroke="#000" stroke-opacity="0" stroke-width="2" fill="#fff" fill-opacity="0"/><use xlink:href="#m" transform="matrix(1,0,0,1,325,497.5) translate(29.124999999999993 16.1)"/><path d="M140 660h220v60H140z" stroke="#000" stroke-width="2" fill="#fff"/><use xlink:href="#k" transform="matrix(1,0,0,1,145,665) translate(49.55 28.6)"/><use xlink:href="#h" transform="matrix(1,0,0,1,145,665) translate(127.5 28.6)"/><path d="M181.33 602v38.5" stroke="#000" stroke-width="2" fill="none"/><path d="M182.33 602.03h-2V601h2z"/><path d="M181.33 655.76l-4.63-14.26h9.27z" stroke="#000" stroke-width="2"/><path d="M321.33 658v-38.5" stroke="#000" stroke-width="2" fill="none"/><path d="M322.33 659h-2v-1.03h2z"/><path d="M321.33 604.24l4.64 14.26h-9.27z" stroke="#000" stroke-width="2"/><path d="M320 612.5h140v35H320z" stroke="#000" stroke-opacity="0" stroke-width="2" fill="#fff" fill-opacity="0"/><g><use xlink:href="#n" transform="matrix(1,0,0,1,325,617.5) translate(29.15 16.1)"/></g><path d="M40 612.5h140v35H40z" stroke="#000" stroke-opacity="0" stroke-width="2" fill="#fff" fill-opacity="0"/><g><use xlink:href="#o" transform="matrix(1,0,0,1,45,617.5) translate(36.075 16.1)"/></g><defs><path d="M205 0l-28-72H64L36 0H1l101-248h38L239 0h-34zm-38-99l-47-123c-12 45-31 82-46 123h93" id="p"/><path d="M115-194c55 1 70 41 70 98S169 2 115 4C84 4 66-9 55-30l1 105H24l-1-265h31l2 30c10-21 28-34 59-34zm-8 174c40 0 45-34 45-75s-6-73-45-74c-42 0-51 32-51 76 0 43 10 73 51 73" id="q"/><path d="M24 0v-261h32V0H24" id="r"/><path d="M24-231v-30h32v30H24zM24 0v-190h32V0H24" id="s"/><path d="M96-169c-40 0-48 33-48 73s9 75 48 75c24 0 41-14 43-38l32 2c-6 37-31 61-74 61-59 0-76-41-82-99-10-93 101-131 147-64 4 7 5 14 7 22l-32 3c-4-21-16-35-41-35" id="t"/><path d="M141-36C126-15 110 5 73 4 37 3 15-17 15-53c-1-64 63-63 125-63 3-35-9-54-41-54-24 1-41 7-42 31l-33-3c5-37 33-52 76-52 45 0 72 20 72 64v82c-1 20 7 32 28 27v20c-31 9-61-2-59-35zM48-53c0 20 12 33 32 33 41-3 63-29 60-74-43 2-92-5-92 41" id="u"/><path d="M59-47c-2 24 18 29 38 22v24C64 9 27 4 27-40v-127H5v-23h24l9-43h21v43h35v23H59v120" id="v"/><path d="M100-194c62-1 85 37 85 99 1 63-27 99-86 99S16-35 15-95c0-66 28-99 85-99zM99-20c44 1 53-31 53-75 0-43-8-75-51-75s-53 32-53 75 10 74 51 75" id="w"/><path d="M117-194c89-4 53 116 60 194h-32v-121c0-31-8-49-39-48C34-167 62-67 57 0H25l-1-190h30c1 10-1 24 2 32 11-22 29-35 61-36" id="x"/><g id="a"><use transform="matrix(0.05,0,0,0.05,0,0)" xlink:href="#p"/><use transform="matrix(0.05,0,0,0.05,12,0)" xlink:href="#q"/><use transform="matrix(0.05,0,0,0.05,22,0)" xlink:href="#q"/><use transform="matrix(0.05,0,0,0.05,32,0)" xlink:href="#r"/><use transform="matrix(0.05,0,0,0.05,35.95,0)" xlink:href="#s"/><use transform="matrix(0.05,0,0,0.05,39.900000000000006,0)" xlink:href="#t"/><use transform="matrix(0.05,0,0,0.05,48.900000000000006,0)" xlink:href="#u"/><use transform="matrix(0.05,0,0,0.05,58.900000000000006,0)" xlink:href="#v"/><use transform="matrix(0.05,0,0,0.05,63.900000000000006,0)" xlink:href="#s"/><use transform="matrix(0.05,0,0,0.05,67.85000000000001,0)" xlink:href="#w"/><use transform="matrix(0.05,0,0,0.05,77.85000000000001,0)" xlink:href="#x"/></g><path d="M160-131c35 5 61 23 61 61C221 17 115-2 30 0v-248c76 3 177-17 177 60 0 33-19 50-47 57zm-97-11c50-1 110 9 110-42 0-47-63-36-110-37v79zm0 115c55-2 124 14 124-45 0-56-70-42-124-44v89" id="y"/><path d="M100-194c63 0 86 42 84 106H49c0 40 14 67 53 68 26 1 43-12 49-29l28 8c-11 28-37 45-77 45C44 4 14-33 15-96c1-61 26-98 85-98zm52 81c6-60-76-77-97-28-3 7-6 17-6 28h103" id="z"/><path d="M135-143c-3-34-86-38-87 0 15 53 115 12 119 90S17 21 10-45l28-5c4 36 97 45 98 0-10-56-113-15-118-90-4-57 82-63 122-42 12 7 21 19 24 35" id="A"/><g id="b"><use transform="matrix(0.05,0,0,0.05,0,0)" xlink:href="#y"/><use transform="matrix(0.05,0,0,0.05,12,0)" xlink:href="#z"/><use transform="matrix(0.05,0,0,0.05,22,0)" xlink:href="#A"/><use transform="matrix(0.05,0,0,0.05,31,0)" xlink:href="#v"/></g><path d="M30 0v-248h187v28H63v79h144v27H63v87h162V0H30" id="B"/><path d="M101-234c-31-9-42 10-38 44h38v23H63V0H32v-167H5v-23h27c-7-52 17-82 69-68v24" id="C"/><path d="M114-163C36-179 61-72 57 0H25l-1-190h30c1 12-1 29 2 39 6-27 23-49 58-41v29" id="D"/><g id="c"><use transform="matrix(0.05,0,0,0.05,0,0)" xlink:href="#B"/><use transform="matrix(0.05,0,0,0.05,12,0)" xlink:href="#C"/><use transform="matrix(0.05,0,0,0.05,16.65,0)" xlink:href="#C"/><use transform="matrix(0.05,0,0,0.05,21.65,0)" xlink:href="#w"/><use transform="matrix(0.05,0,0,0.05,31.649999999999995,0)" xlink:href="#D"/><use transform="matrix(0.05,0,0,0.05,37.6,0)" xlink:href="#v"/></g><path d="M85-194c31 0 48 13 60 33l-1-100h32l1 261h-30c-2-10 0-23-3-31C134-8 116 4 85 4 32 4 16-35 15-94c0-66 23-100 70-100zm9 24c-40 0-46 34-46 75 0 40 6 74 45 74 42 0 51-32 51-76 0-42-9-74-50-73" id="E"/><g id="d"><use transform="matrix(0.05,0,0,0.05,0,0)" xlink:href="#y"/><use transform="matrix(0.05,0,0,0.05,12,0)" xlink:href="#D"/><use transform="matrix(0.05,0,0,0.05,17.95,0)" xlink:href="#w"/><use transform="matrix(0.05,0,0,0.05,27.950000000000003,0)" xlink:href="#u"/><use transform="matrix(0.05,0,0,0.05,37.95,0)" xlink:href="#E"/><use transform="matrix(0.05,0,0,0.05,47.95,0)" xlink:href="#t"/><use transform="matrix(0.05,0,0,0.05,56.95,0)" xlink:href="#u"/><use transform="matrix(0.05,0,0,0.05,66.95,0)" xlink:href="#A"/><use transform="matrix(0.05,0,0,0.05,75.95,0)" xlink:href="#v"/></g><path d="M115-194c53 0 69 39 70 98 0 66-23 100-70 100C84 3 66-7 56-30L54 0H23l1-261h32v101c10-23 28-34 59-34zm-8 174c40 0 45-34 45-75 0-40-5-75-45-74-42 0-51 32-51 76 0 43 10 73 51 73" id="F"/><path d="M16-82v-28h88v28H16" id="G"/><path d="M108 0H70L1-190h34L89-25l56-165h34" id="H"/><g id="e"><use transform="matrix(0.05,0,0,0.05,0,0)" xlink:href="#F"/><use transform="matrix(0.05,0,0,0.05,10,0)" xlink:href="#z"/><use transform="matrix(0.05,0,0,0.05,20,0)" xlink:href="#F"/><use transform="matrix(0.05,0,0,0.05,30,0)" xlink:href="#G"/><use transform="matrix(0.05,0,0,0.05,35.95,0)" xlink:href="#E"/><use transform="matrix(0.05,0,0,0.05,45.95,0)" xlink:href="#z"/><use transform="matrix(0.05,0,0,0.05,55.95,0)" xlink:href="#r"/><use transform="matrix(0.05,0,0,0.05,59.900000000000006,0)" xlink:href="#s"/><use transform="matrix(0.05,0,0,0.05,63.85,0)" xlink:href="#H"/><use transform="matrix(0.05,0,0,0.05,72.85000000000001,0)" xlink:href="#z"/><use transform="matrix(0.05,0,0,0.05,82.85000000000001,0)" xlink:href="#D"/></g><g id="f"><use transform="matrix(0.05,0,0,0.05,0,0)" xlink:href="#F"/><use transform="matrix(0.05,0,0,0.05,10,0)" xlink:href="#z"/><use transform="matrix(0.05,0,0,0.05,20,0)" xlink:href="#F"/><use transform="matrix(0.05,0,0,0.05,30,0)" xlink:href="#G"/><use transform="matrix(0.05,0,0,0.05,35.95,0)" xlink:href="#F"/><use transform="matrix(0.05,0,0,0.05,45.95,0)" xlink:href="#D"/><use transform="matrix(0.05,0,0,0.05,51.900000000000006,0)" xlink:href="#w"/><use transform="matrix(0.05,0,0,0.05,61.900000000000006,0)" xlink:href="#u"/><use transform="matrix(0.05,0,0,0.05,71.9,0)" xlink:href="#E"/><use transform="matrix(0.05,0,0,0.05,81.9,0)" xlink:href="#t"/><use transform="matrix(0.05,0,0,0.05,90.9,0)" xlink:href="#u"/><use transform="matrix(0.05,0,0,0.05,100.9,0)" xlink:href="#A"/><use transform="matrix(0.05,0,0,0.05,109.9,0)" xlink:href="#v"/></g><path d="M30-248c87 1 191-15 191 75 0 78-77 80-158 76V0H30v-248zm33 125c57 0 124 11 124-50 0-59-68-47-124-48v98" id="I"/><g id="g"><use transform="matrix(0.05,0,0,0.05,0,0)" xlink:href="#I"/><use transform="matrix(0.05,0,0,0.05,12,0)" xlink:href="#z"/><use transform="matrix(0.05,0,0,0.05,22,0)" xlink:href="#D"/><use transform="matrix(0.05,0,0,0.05,27.950000000000003,0)" xlink:href="#C"/><use transform="matrix(0.05,0,0,0.05,32.95,0)" xlink:href="#z"/><use transform="matrix(0.05,0,0,0.05,42.95,0)" xlink:href="#t"/><use transform="matrix(0.05,0,0,0.05,51.95,0)" xlink:href="#v"/></g><path d="M30 0v-248h33v221h125V0H30" id="J"/><path d="M143 0L79-87 56-68V0H24v-261h32v163l83-92h37l-77 82L181 0h-38" id="K"/><g id="h"><use transform="matrix(0.05,0,0,0.05,0,0)" xlink:href="#J"/><use transform="matrix(0.05,0,0,0.05,10,0)" xlink:href="#s"/><use transform="matrix(0.05,0,0,0.05,13.949999999999998,0)" xlink:href="#x"/><use transform="matrix(0.05,0,0,0.05,23.95,0)" xlink:href="#K"/></g><g id="i"><use transform="matrix(0.05,0,0,0.05,0,0)" xlink:href="#q"/><use transform="matrix(0.05,0,0,0.05,10,0)" xlink:href="#r"/><use transform="matrix(0.05,0,0,0.05,13.949999999999998,0)" xlink:href="#G"/><use transform="matrix(0.05,0,0,0.05,19.9,0)" xlink:href="#A"/><use transform="matrix(0.05,0,0,0.05,28.899999999999995,0)" xlink:href="#z"/><use transform="matrix(0.05,0,0,0.05,38.9,0)" xlink:href="#x"/><use transform="matrix(0.05,0,0,0.05,48.9,0)" xlink:href="#E"/></g><g id="j"><use transform="matrix(0.05,0,0,0.05,0,0)" xlink:href="#q"/><use transform="matrix(0.05,0,0,0.05,10,0)" xlink:href="#r"/><use transform="matrix(0.05,0,0,0.05,13.949999999999998,0)" xlink:href="#G"/><use transform="matrix(0.05,0,0,0.05,19.9,0)" xlink:href="#E"/><use transform="matrix(0.05,0,0,0.05,29.899999999999995,0)" xlink:href="#z"/><use transform="matrix(0.05,0,0,0.05,39.9,0)" xlink:href="#r"/><use transform="matrix(0.05,0,0,0.05,43.85,0)" xlink:href="#s"/><use transform="matrix(0.05,0,0,0.05,47.800000000000004,0)" xlink:href="#H"/><use transform="matrix(0.05,0,0,0.05,56.800000000000004,0)" xlink:href="#z"/><use transform="matrix(0.05,0,0,0.05,66.80000000000001,0)" xlink:href="#D"/></g><path d="M185-189c-5-48-123-54-124 2 14 75 158 14 163 119 3 78-121 87-175 55-17-10-28-26-33-46l33-7c5 56 141 63 141-1 0-78-155-14-162-118-5-82 145-84 179-34 5 7 8 16 11 25" id="L"/><path d="M84 4C-5 8 30-112 23-190h32v120c0 31 7 50 39 49 72-2 45-101 50-169h31l1 190h-30c-1-10 1-25-2-33-11 22-28 36-60 37" id="M"/><g id="k"><use transform="matrix(0.05,0,0,0.05,0,0)" xlink:href="#L"/><use transform="matrix(0.05,0,0,0.05,12,0)" xlink:href="#v"/><use transform="matrix(0.05,0,0,0.05,17,0)" xlink:href="#M"/><use transform="matrix(0.05,0,0,0.05,27,0)" xlink:href="#F"/><use transform="matrix(0.05,0,0,0.05,37,0)" xlink:href="#F"/><use transform="matrix(0.05,0,0,0.05,47,0)" xlink:href="#w"/><use transform="matrix(0.05,0,0,0.05,57,0)" xlink:href="#D"/><use transform="matrix(0.05,0,0,0.05,62.95,0)" xlink:href="#x"/></g><g id="l"><use transform="matrix(0.05,0,0,0.05,0,0)" xlink:href="#A"/><use transform="matrix(0.05,0,0,0.05,9,0)" xlink:href="#r"/><use transform="matrix(0.05,0,0,0.05,12.949999999999998,0)" xlink:href="#G"/><use transform="matrix(0.05,0,0,0.05,18.9,0)" xlink:href="#A"/><use transform="matrix(0.05,0,0,0.05,27.899999999999995,0)" xlink:href="#z"/><use transform="matrix(0.05,0,0,0.05,37.9,0)" xlink:href="#x"/><use transform="matrix(0.05,0,0,0.05,47.9,0)" xlink:href="#E"/></g><g id="m"><use transform="matrix(0.05,0,0,0.05,0,0)" xlink:href="#A"/><use transform="matrix(0.05,0,0,0.05,9,0)" xlink:href="#r"/><use transform="matrix(0.05,0,0,0.05,12.949999999999998,0)" xlink:href="#G"/><use transform="matrix(0.05,0,0,0.05,18.9,0)" xlink:href="#E"/><use transform="matrix(0.05,0,0,0.05,28.899999999999995,0)" xlink:href="#z"/><use transform="matrix(0.05,0,0,0.05,38.9,0)" xlink:href="#r"/><use transform="matrix(0.05,0,0,0.05,42.85,0)" xlink:href="#s"/><use transform="matrix(0.05,0,0,0.05,46.800000000000004,0)" xlink:href="#H"/><use transform="matrix(0.05,0,0,0.05,55.800000000000004,0)" xlink:href="#z"/><use transform="matrix(0.05,0,0,0.05,65.80000000000001,0)" xlink:href="#D"/></g><g id="n"><use transform="matrix(0.05,0,0,0.05,0,0)" xlink:href="#C"/><use transform="matrix(0.05,0,0,0.05,5,0)" xlink:href="#r"/><use transform="matrix(0.05,0,0,0.05,8.95,0)" xlink:href="#r"/><use transform="matrix(0.05,0,0,0.05,12.899999999999999,0)" xlink:href="#G"/><use transform="matrix(0.05,0,0,0.05,18.849999999999998,0)" xlink:href="#E"/><use transform="matrix(0.05,0,0,0.05,28.849999999999994,0)" xlink:href="#z"/><use transform="matrix(0.05,0,0,0.05,38.849999999999994,0)" xlink:href="#r"/><use transform="matrix(0.05,0,0,0.05,42.8,0)" xlink:href="#s"/><use transform="matrix(0.05,0,0,0.05,46.75,0)" xlink:href="#H"/><use transform="matrix(0.05,0,0,0.05,55.75,0)" xlink:href="#z"/><use transform="matrix(0.05,0,0,0.05,65.75,0)" xlink:href="#D"/></g><g id="o"><use transform="matrix(0.05,0,0,0.05,0,0)" xlink:href="#C"/><use transform="matrix(0.05,0,0,0.05,5,0)" xlink:href="#r"/><use transform="matrix(0.05,0,0,0.05,8.95,0)" xlink:href="#r"/><use transform="matrix(0.05,0,0,0.05,12.899999999999999,0)" xlink:href="#G"/><use transform="matrix(0.05,0,0,0.05,18.849999999999998,0)" xlink:href="#A"/><use transform="matrix(0.05,0,0,0.05,27.849999999999994,0)" xlink:href="#z"/><use transform="matrix(0.05,0,0,0.05,37.849999999999994,0)" xlink:href="#x"/><use transform="matrix(0.05,0,0,0.05,47.849999999999994,0)" xlink:href="#E"/></g></defs></g></svg>